<svg id="visual" viewBox="0 0 900 600" width="900" height="600" xmlns="http://www.w3.org/2000/svg" xmlns:xlink="http://www.w3.org/1999/xlink" version="1.1"><rect x="0" y="0" width="900" height="600" fill="#001220"></rect><path d="M0 374L21.5 379.2C43 384.3 86 394.7 128.8 395.7C171.7 396.7 214.3 388.3 257.2 384.5C300 380.7 343 381.3 385.8 387.2C428.7 393 471.3 404 514.2 406.2C557 408.3 600 401.7 642.8 400.3C685.7 399 728.3 403 771.2 399.7C814 396.3 857 385.7 878.5 380.3L900 375L900 601L878.5 601C857 601 814 601 771.2 601C728.3 601 685.7 601 642.8 601C600 601 557 601 514.2 601C471.3 601 428.7 601 385.8 601C343 601 300 601 257.2 601C214.3 601 171.7 601 128.8 601C86 601 43 601 21.5 601L0 601Z" fill="#fa7268"></path><path d="M0 449L21.5 449.2C43 449.3 86 449.7 128.8 450.8C171.7 452 214.3 454 257.2 451C300 448 343 440 385.8 434.5C428.7 429 471.3 426 514.2 428C557 430 600 437 642.8 439C685.7 441 728.3 438 771.2 438.2C814 438.3 857 441.7 878.5 443.3L900 445L900 601L878.5 601C857 601 814 601 771.2 601C728.3 601 685.7 601 642.8 601C600 601 557 601 514.2 601C471.3 601 428.7 601 385.8 601C343 601 300 601 257.2 601C214.3 601 171.7 601 128.8 601C86 601 43 601 21.5 601L0 601Z" fill="#f16367"></path><path d="M0 486L21.5 478.5C43 471 86 456 128.8 448.3C171.7 440.7 214.3 440.3 257.2 446.7C300 453 343 466 385.8 472C428.7 478 471.3 477 514.2 475.7C557 474.3 600 472.7 642.8 469.2C685.7 465.7 728.3 460.3 771.2 462.8C814 465.3 857 475.7 878.5 480.8L900 486L900 601L878.5 601C857 601 814 601 771.2 601C728.3 601 685.7 601 642.8 601C600 601 557 601 514.2 601C471.3 601 428.7 601 385.8 601C343 601 300 601 257.2 601C214.3 601 171.7 601 128.8 601C86 601 43 601 21.5 601L0 601Z" fill="#e85467"></path><path d="M0 493L21.5 490.7C43 488.3 86 483.7 128.8 480.8C171.7 478 214.3 477 257.2 482.2C300 487.3 343 498.7 385.8 502.5C428.7 506.3 471.3 502.7 514.2 501.2C557 499.7 600 500.3 642.8 503C685.7 505.7 728.3 510.3 771.2 508.8C814 507.3 857 499.7 878.5 495.8L900 492L900 601L878.5 601C857 601 814 601 771.2 601C728.3 601 685.7 601 642.8 601C600 601 557 601 514.2 601C471.3 601 428.7 601 385.8 601C343 601 300 601 257.2 601C214.3 601 171.7 601 128.8 601C86 601 43 601 21.5 601L0 601Z" fill="#de4467"></path><path d="M0 547L21.5 546.5C43 546 86 545 128.8 539.7C171.7 534.3 214.3 524.7 257.2 518.7C300 512.7 343 510.3 385.8 516.5C428.7 522.7 471.3 537.3 514.2 537.2C557 537 600 522 642.8 522C685.7 522 728.3 537 771.2 537C814 537 857 522 878.5 514.5L900 507L900 601L878.5 601C857 601 814 601 771.2 601C728.3 601 685.7 601 642.8 601C600 601 557 601 514.2 601C471.3 601 428.7 601 385.8 601C343 601 300 601 257.2 601C214.3 601 171.7 601 128.8 601C86 601 43 601 21.5 601L0 601Z" fill="#d23467"></path><path d="M0 578L21.5 577C43 576 86 574 128.8 572.3C171.7 570.7 214.3 569.3 257.2 571.2C300 573 343 578 385.8 580.7C428.7 583.3 471.3 583.7 514.2 582.5C557 581.3 600 578.7 642.8 576.5C685.7 574.3 728.3 572.7 771.2 569.8C814 567 857 563 878.5 561L900 559L900 601L878.5 601C857 601 814 601 771.2 601C728.3 601 685.7 601 642.8 601C600 601 557 601 514.2 601C471.3 601 428.7 601 385.8 601C343 601 300 601 257.2 601C214.3 601 171.7 601 128.8 601C86 601 43 601 21.5 601L0 601Z" fill="#c62368"></path></svg>